<svg xmlns="http://www.w3.org/2000/svg" xmlns:xlink="http://www.w3.org/1999/xlink" viewBox="0 0 611 360"><defs><style>.cls-1{fill:url(#linear-gradient);}.cls-2,.cls-4{fill:#fff;}.cls-2{opacity:0.11;}.cls-3{fill:#cbcbcb;}</style><linearGradient id="linear-gradient" x1="305.75" y1="0.5" x2="305.75" y2="360.5" gradientUnits="userSpaceOnUse"><stop offset="0" stop-color="#00b7e6"/><stop offset="0.34" stop-color="#00ace2"/><stop offset="0.93" stop-color="#008ed7"/><stop offset="1" stop-color="#008ad5"/></linearGradient></defs><g id="Layer_1" data-name="Layer 1"><image width="360" height="360" transform="translate(251)" xlink:href="../Downloads/tonguess.png"/></g><g id="Layer_2" data-name="Layer 2"><rect class="cls-1" x="0.5" y="0.5" width="610.5" height="360"/><path class="cls-2" d="M179.44-123H92.35L48.77-48l39.8,68.5L48.77,89l39.8,68.5L48.77,226l39.8,68.5L48.77,363l43.58,75h87.09L223,363l-39.8-68.5L223,226l-39.8-68.5L223,89l-39.8-68.5L223-48ZM99.83-110H172l36,62L172,14H99.83l-36-62ZM172,425H99.83l-36-62,36-62H172l36,62Zm0-137H99.83l-36-62,36-62H172l36,62Zm0-137H99.83l-36-62,36-62H172l36,62Z"/><path class="cls-2" d="M420.22,20.5,460-48l-43.58-75H329.35L285.77-48l39.8,68.5L285.77,89l39.8,68.5L285.77,226l39.8,68.5L285.77,363l43.58,75h87.09L460,363l-39.8-68.5L460,226l-39.8-68.5L460,89ZM336.83-110H409l36,62L409,14H336.83l-36-62Zm0,137H409l36,62-36,62H336.83l-36-62ZM409,425H336.83l-36-62,36-62H409l36,62Zm0-137H336.83l-36-62,36-62H409l36,62Z"/><path class="cls-2" d="M650.22,20.5,690-48l-43.58-75H559.35L515.77-48l39.8,68.5L515.77,89l39.8,68.5L515.77,226l39.8,68.5L515.77,363l43.58,75h87.09L690,363l-39.8-68.5L690,226l-39.8-68.5L690,89ZM566.83-110H639l36,62L639,14H566.83l-36-62Zm0,137H639l36,62-36,62H566.83l-36-62ZM639,425H566.83l-36-62,36-62H639l36,62Zm0-137H566.83l-36-62,36-62H639l36,62Z"/><rect class="cls-3" x="324.5" y="43.5" width="223" height="273" rx="12.3"/><rect class="cls-4" x="325.5" y="39.5" width="218" height="273" rx="12.3"/><rect class="cls-3" x="579" y="44" width="223" height="273" rx="12.3"/><rect class="cls-4" x="577" y="39" width="218" height="273" rx="12.3"/><rect class="cls-3" x="70.5" y="43.5" width="223" height="273" rx="12.3"/><rect class="cls-4" x="68.5" y="38.5" width="218" height="273" rx="12.3"/><rect class="cls-3" x="-183.5" y="43.5" width="223" height="273" rx="12.3"/><rect class="cls-4" x="-185.5" y="38.5" width="218" height="273" rx="12.3"/><path d="M262.08,94.5H96.92A11.42,11.42,0,0,0,85.5,105.92v5.16A11.42,11.42,0,0,0,96.92,122.5H158.5V272.41a7.08,7.08,0,0,0,5.15,6.81,98.39,98.39,0,0,0,23.51-4.65c42.34-13.83,74.45-55.43,81-106.61q.87-6.81,1.14-13.84a4.88,4.88,0,0,0-4.7-3.62H214.5a12,12,0,0,0,0,24h23.21c-6.85,31-25.65,56.11-50.21,67.81V122.5h74.58a11.42,11.42,0,0,0,11.42-11.42v-5.16A11.42,11.42,0,0,0,262.08,94.5Z"/><circle cx="120.5" cy="165.5" r="23"/><path d="M494,130.19h-8v-1.85A33.38,33.38,0,0,0,452.66,95H418.34A33.38,33.38,0,0,0,385,128.34v1.85h-8a27.53,27.53,0,0,0-27.5,27.5V237A27.54,27.54,0,0,0,377,264.5H494A27.54,27.54,0,0,0,521.5,237V157.69A27.53,27.53,0,0,0,494,130.19Zm-88-1.85A12.36,12.36,0,0,1,418.34,116h34.32A12.36,12.36,0,0,1,465,128.34v1.85H406Zm-29,26.85H494a2.5,2.5,0,0,1,2.5,2.5v17.74H471.15a10,10,0,0,0-16.3,0h-37.7a10,10,0,0,0-16.3,0H374.5V157.69A2.5,2.5,0,0,1,377,155.19ZM494,239.5H377a2.5,2.5,0,0,1-2.5-2.5V200.43h26.35a10,10,0,0,0,16.3,0h37.7a10,10,0,0,0,16.3,0H496.5V237A2.5,2.5,0,0,1,494,239.5Z"/></g></svg>